<?xml version="1.0" standalone="no"?>
<!DOCTYPE svg PUBLIC "-//W3C//DTD SVG 20010904//EN"
 "http://www.w3.org/TR/2001/REC-SVG-20010904/DTD/svg10.dtd">
<svg version="1.0" xmlns="http://www.w3.org/2000/svg"
 width="700.000000pt" height="700.000000pt" viewBox="0 0 700.000000 700.000000"
 preserveAspectRatio="xMidYMid meet">
<metadata>
Created by potrace 1.14, written by Peter Selinger 2001-2017
</metadata>
<g transform="translate(0.000000,700.000000) scale(0.100000,-0.100000)"
fill="#000000" stroke="none">
<path d="M790 6979 c-116 -41 -216 -150 -240 -262 -8 -38 -10 -932 -8 -3247
l3 -3195 29 -58 c49 -100 111 -156 218 -197 53 -20 71 -20 2718 -17 l2665 2
58 24 c74 31 155 108 193 186 l29 60 0 3225 0 3225 -27 55 c-40 83 -97 142
-175 181 l-68 34 -2670 2 c-2624 1 -2671 1 -2725 -18z m1884 -699 c45 -14 93
-69 102 -116 9 -46 -9 -104 -42 -137 l-26 -26 22 -13 c35 -21 58 -77 55 -130
-4 -54 -18 -84 -53 -116 -40 -35 -87 -43 -237 -40 l-139 3 -1 284 c0 189 4
288 11 295 14 15 262 11 308 -4z m344 6 c3 -3 5 -355 2 -553 l0 -33 -57 0 -58
0 0 295 0 294 25 3 c29 4 81 0 88 -6z m243 5 c3 -1 57 -81 120 -180 l114 -178
3 178 c3 199 -4 181 72 181 17 0 33 -1 38 -1 4 -1 7 -134 7 -296 l0 -295 -51
0 -52 0 -113 175 c-63 96 -116 175 -119 175 -3 0 -5 -79 -4 -175 l1 -175 -59
0 -58 0 0 294 c0 336 -9 309 101 297z m795 -14 c55 -29 90 -71 112 -134 l11
-33 -60 0 c-54 0 -60 2 -69 24 -12 34 -52 58 -94 58 -81 0 -106 -45 -106 -189
0 -158 24 -203 106 -203 60 0 94 31 101 90 l5 45 -53 0 -54 0 -1 48 -1 48 111
-3 111 -3 -1 -90 c-1 -101 -12 -131 -66 -183 -55 -54 -154 -71 -243 -42 -17 6
-49 28 -70 50 -48 50 -63 113 -60 267 2 91 6 119 24 156 23 46 77 92 127 106
42 12 136 6 170 -12z m541 0 c49 -26 90 -75 104 -124 19 -68 15 -278 -6 -329
-34 -83 -116 -133 -207 -128 -65 3 -95 14 -138 50 -56 48 -72 98 -73 238 -1
174 19 229 101 284 51 33 163 38 219 9z m-2802 -215 c1 -1 28 -7 60 -12 32 -5
60 -11 62 -14 3 -3 -15 -24 -40 -48 l-46 -43 11 -58 c5 -32 8 -61 5 -64 -3 -3
-30 7 -60 22 l-53 27 -52 -26 c-28 -14 -55 -26 -60 -26 -5 0 -4 28 2 63 l11
62 -48 46 c-53 52 -55 50 44 64 45 7 47 9 74 67 l28 61 30 -59 c16 -32 30 -60
32 -62z m3516 31 c7 -21 18 -33 30 -34 10 -1 22 -2 27 -3 4 -1 27 -6 52 -10
l44 -8 -48 -44 -49 -43 10 -70 9 -70 -59 31 -58 32 -52 -27 c-29 -15 -56 -27
-61 -27 -7 0 -4 45 9 110 2 11 -13 34 -41 60 -45 42 -54 59 -31 56 6 0 35 3
63 7 51 7 52 8 80 67 l28 59 18 -27 c10 -15 23 -42 29 -59z m-2740 -813 c3
-13 5 -1486 2 -1496 -3 -8 -211 -11 -757 -12 l-753 0 0 751 c0 414 3 754 8
757 10 7 1499 7 1500 0z m1683 -10 c2 -8 3 -348 2 -755 l-1 -740 -755 -2 -755
-1 1 751 c1 414 2 754 3 757 0 3 339 5 751 5 662 0 751 -1 754 -15z m1680 0
c3 -8 4 -348 4 -756 l-1 -741 -756 1 -756 1 0 745 c-1 410 1 750 2 755 2 7
251 10 753 10 662 0 751 -1 754 -15z m-3359 -2414 c0 -411 -2 -752 -6 -757 -3
-5 -304 -8 -755 -7 l-749 3 -1 752 c-1 670 0 752 14 755 9 2 349 3 756 3 l741
0 0 -749z m1671 745 c7 -1 10 -234 10 -753 l-1 -753 -755 0 -755 0 0 750 c-1
720 0 750 18 755 15 4 1445 5 1483 1z m1688 -11 c3 -8 4 -348 3 -755 l-2 -740
-755 0 -755 0 0 745 c-1 410 2 750 6 755 5 7 267 10 753 10 655 0 747 -2 750
-15z m-3368 -1672 c6 -4 9 -266 8 -705 -1 -384 -2 -700 -3 -703 -1 -4 -1457
-5 -1497 -1 -8 1 -11 202 -11 706 0 626 2 704 15 707 30 6 1478 1 1488 -4z
m1675 3 c14 -1 15 -72 14 -703 -1 -387 -3 -705 -4 -708 -1 -4 -1481 -5 -1501
-1 -8 2 -7 1405 1 1411 6 4 1423 5 1490 1z m1685 0 c8 -1 11 -191 11 -706 0
-388 -2 -705 -6 -706 -3 -1 -342 -2 -754 -3 -658 -1 -747 1 -748 14 -6 74 -4
1387 2 1395 5 7 263 9 746 8 406 0 743 -2 749 -2z"/>
<path d="M2477 6183 c-3 -5 -4 -36 -4 -70 l0 -62 61 1 c78 0 112 13 124 47 10
30 1 57 -26 79 -17 13 -148 17 -155 5z"/>
<path d="M2473 5878 l2 -73 74 -1 c65 -2 77 1 97 22 24 23 31 67 16 90 -15 23
-53 34 -121 34 l-70 0 2 -72z"/>
<path d="M4463 6188 c-55 -14 -67 -45 -70 -177 -2 -101 0 -122 18 -158 17 -35
27 -44 56 -49 46 -9 81 4 107 39 19 25 21 42 21 155 0 137 -12 173 -58 188
-33 11 -39 12 -74 2z"/>
<path d="M1724 4782 c-95 -81 -94 -80 -95 -124 -2 -84 -4 -84 59 -28 l57 51 3
-241 c2 -219 4 -240 20 -241 30 -2 85 1 89 5 3 3 6 485 4 581 -1 17 -8 20 -55
21 -43 0 -59 -5 -82 -24z"/>
<path d="M3406 4788 c-52 -27 -92 -93 -87 -144 1 -7 21 -12 52 -11 47 0 51 2
64 33 34 83 154 38 137 -51 -2 -13 -61 -91 -131 -173 -118 -137 -127 -152
-127 -188 1 -21 4 -43 8 -49 5 -8 311 -13 359 -6 3 1 6 21 6 46 0 54 0 54
-125 52 -52 -1 -96 1 -98 4 -2 4 41 59 97 124 125 146 142 186 113 271 -34
100 -165 145 -268 92z"/>
<path d="M5130 4788 c-28 -15 -53 -39 -67 -64 -25 -43 -30 -84 -10 -85 90 -5
97 -4 97 13 0 26 40 58 72 58 18 0 39 -10 54 -25 44 -44 17 -125 -43 -125 -25
0 -25 0 -26 -57 -1 -35 1 -38 36 -46 38 -9 64 -43 61 -77 -1 -8 -2 -24 -3 -35
-1 -25 -52 -57 -83 -52 -40 7 -56 18 -68 48 -12 27 -16 29 -66 29 -45 0 -54
-3 -54 -17 1 -27 34 -96 57 -115 31 -28 94 -45 155 -43 101 4 165 64 174 162
4 51 -13 100 -46 131 l-23 21 27 31 c32 39 40 69 32 123 -14 88 -74 137 -176
145 -44 3 -64 -1 -100 -20z"/>
<path d="M1782 3182 c-7 -2 -59 -97 -115 -210 -103 -208 -109 -225 -98 -304 1
-5 57 -8 125 -8 l125 0 -5 -26 c-9 -48 1 -59 56 -59 l50 -1 0 42 c0 39 2 43
28 46 24 3 27 7 28 43 1 40 -9 72 -20 68 -28 -13 -36 0 -36 52 l0 55 -54 0
-54 0 2 -55 c1 -33 -2 -55 -8 -56 -54 -3 -116 -3 -116 1 0 3 45 95 100 204 55
110 98 201 96 204 -7 6 -89 10 -104 4z"/>
<path d="M3400 3365 c-176 -38 -328 -184 -373 -358 -21 -79 -25 -627 -5 -628
15 -1 937 -1 956 0 11 1 13 57 10 304 -4 253 -7 311 -22 355 -22 67 -73 148
-126 198 -49 47 -156 114 -182 114 -11 0 -28 5 -39 10 -29 16 -156 19 -219 5z
m227 -637 c75 -36 100 -53 99 -66 -3 -15 -23 -17 -227 -17 l-224 0 -1 120 c0
66 1 123 3 127 2 4 59 -20 126 -54 67 -33 168 -82 224 -110z"/>
<path d="M5201 3176 c-22 -26 -162 -331 -171 -371 -19 -87 6 -159 72 -203 35
-23 52 -27 107 -27 113 1 181 59 189 161 9 111 -50 192 -148 202 l-50 5 60
115 c33 64 58 118 55 120 -10 10 -105 9 -114 -2z m48 -341 c32 -16 41 -33 41
-79 0 -42 -23 -73 -61 -81 -58 -13 -98 26 -94 92 2 35 19 61 50 73 28 12 33
12 64 -5z"/>
<path d="M1682 1443 l3 -98 35 1 c19 1 42 2 51 3 12 1 15 11 15 44 l-1 42 79
3 c72 3 78 1 73 -15 -3 -10 -46 -123 -96 -252 -50 -129 -91 -236 -91 -237 0
-1 27 -3 59 -3 l60 0 19 52 c29 76 108 280 143 367 17 42 32 100 34 133 l4 57
-195 0 -195 0 3 -97z"/>
<path d="M3461 1532 c-112 -43 -147 -185 -66 -266 15 -14 13 -19 -17 -57 -30
-37 -33 -48 -33 -104 0 -56 4 -68 31 -102 49 -61 115 -83 209 -69 47 8 105 48
127 89 31 58 20 142 -24 192 -30 35 -30 36 -12 53 76 70 51 206 -47 257 -43
23 -119 26 -168 7z m124 -108 c52 -48 19 -129 -51 -127 -81 2 -105 107 -32
137 41 18 55 16 83 -10z m13 -260 c47 -54 10 -134 -63 -134 -61 0 -100 61 -73
116 26 56 94 65 136 18z"/>
<path d="M5175 1541 c-70 -17 -112 -59 -131 -130 -15 -58 -10 -103 18 -151 28
-51 64 -73 124 -78 l52 -4 -59 -117 c-32 -65 -59 -121 -59 -125 0 -4 26 -6 58
-4 l57 3 67 135 c92 185 110 235 109 298 -1 74 -32 126 -93 158 -33 17 -103
24 -143 15z m77 -100 c48 -2 66 -105 27 -148 -42 -44 -123 -18 -129 42 -7 62
27 117 66 110 11 -2 27 -4 36 -4z"/>
</g>
</svg>
